<svg width="20" height="20" viewBox="0 0 20 20" fill="none" xmlns="http://www.w3.org/2000/svg">
<path fill-rule="evenodd" clip-rule="evenodd" d="M5.58159 18.75C5.30073 19.3412 4.6981 19.75 4 19.75H2C1.0335 19.75 0.25 18.9665 0.25 18V2C0.25 1.0335 1.0335 0.25 2 0.25H5C5.6981 0.25 6.30073 0.658763 6.58159 1.25H19.5V2.75H18.75V17.25H19.5V18.75H5.58159ZM2 1.75C1.86193 1.75 1.75 1.86193 1.75 2V9.18403C3.73951 8.8298 5.25 7.0913 5.25 5V2C5.25 1.86193 5.13807 1.75 5 1.75H2ZM3.68893 10.0838C5.5097 9.1188 6.75 7.20424 6.75 5V2.75H17.25V10.1822C16.8448 10.3206 16.4609 10.5389 16.128 10.8404C15.8354 11.1055 15.4373 11.2495 15.0213 11.2495C14.6052 11.2495 14.2071 11.1055 13.9145 10.8404C13.2875 10.2725 12.4794 10 11.6892 10C10.8991 10 10.091 10.2725 9.46402 10.8404C9.17136 11.1055 8.77328 11.2495 8.35723 11.2495C7.94119 11.2495 7.5431 11.1055 7.25045 10.8404C6.62347 10.2725 5.81536 10 5.02522 10C4.63216 10 4.23466 10.0674 3.85723 10.2051C3.80205 10.1635 3.74594 10.1231 3.68893 10.0838ZM17.25 12.072L17.2465 12.0751C16.6195 12.6431 15.8114 12.9155 15.0213 12.9155C14.2311 12.9155 13.423 12.6431 12.796 12.0751C12.5034 11.8101 12.1053 11.666 11.6892 11.666C11.2732 11.666 10.8751 11.8101 10.5825 12.0751C9.95548 12.6431 9.14738 12.9155 8.35723 12.9155C7.56709 12.9155 6.75899 12.6431 6.132 12.0751C5.8664 11.8346 5.51396 11.6937 5.14006 11.6697C5.4633 12.2427 5.67101 12.8896 5.73157 13.5787C6.27215 13.6965 6.79194 13.9479 7.22523 14.3404C7.51788 14.6055 7.91597 14.7495 8.33201 14.7495C8.74806 14.7495 9.14614 14.6055 9.4388 14.3404C10.0658 13.7725 10.8739 13.5 11.664 13.5C12.4542 13.5 13.2623 13.7725 13.8893 14.3404C14.1819 14.6055 14.58 14.7495 14.996 14.7495C15.4121 14.7495 15.8102 14.6055 16.1028 14.3404C16.4426 14.0326 16.8355 13.8116 17.25 13.6737V12.072ZM17.25 15.5498C17.2403 15.5581 17.2307 15.5666 17.2213 15.5751C16.5943 16.1431 15.7862 16.4155 14.996 16.4155C14.2059 16.4155 13.3978 16.1431 12.7708 15.5751C12.4782 15.3101 12.0801 15.166 11.664 15.166C11.248 15.166 10.8499 15.3101 10.5572 15.5751C9.93026 16.1431 9.12216 16.4155 8.33201 16.4155C7.54187 16.4155 6.73377 16.1431 6.10678 15.5751C6.00039 15.4788 5.88006 15.3984 5.75 15.3351V17.25H17.25V15.5498ZM1.75 10.837V18C1.75 18.1381 1.86193 18.25 2 18.25H4C4.13807 18.25 4.25 18.1381 4.25 18V14C4.25 12.4632 3.18335 11.1755 1.75 10.837Z" fill="#131313"/>
<path fill-rule="evenodd" clip-rule="evenodd" d="M13 4.75C12.3096 4.75 11.75 5.30964 11.75 6C11.75 6.69036 12.3096 7.25 13 7.25C13.6904 7.25 14.25 6.69036 14.25 6C14.25 5.30964 13.6904 4.75 13 4.75ZM10.25 6C10.25 4.48122 11.4812 3.25 13 3.25C14.5188 3.25 15.75 4.48122 15.75 6C15.75 7.51878 14.5188 8.75 13 8.75C11.4812 8.75 10.25 7.51878 10.25 6Z" fill="#131313"/>
</svg>
