<svg width="20" height="20" viewBox="0 0 20 20" fill="none" xmlns="http://www.w3.org/2000/svg">
<path fill-rule="evenodd" clip-rule="evenodd" d="M9 1.5C8.30964 1.5 7.75 2.05964 7.75 2.75H6.25C6.25 1.23122 7.48122 0 9 0C9.78802 0 10.4986 0.331446 11 0.862533C11.5014 0.331446 12.212 0 13 0C14.5188 0 15.75 1.23122 15.75 2.75V4.5H20V6H15.75V8.90319C16.0808 8.80045 16.4242 8.75 16.7642 8.75C17.5543 8.75 18.3624 9.02245 18.9894 9.59037C19.2575 9.83325 19.6142 9.97453 19.9921 9.99649V11.6639C19.2355 11.641 18.4704 11.3681 17.871 10.8251C17.5783 10.5601 17.1802 10.416 16.7642 10.416C16.3905 10.416 16.0313 10.5322 15.75 10.7479V10.75H15.7473C15.7164 10.7738 15.6864 10.7989 15.6574 10.8251C15.0304 11.3931 14.2223 11.6655 13.4322 11.6655C12.642 11.6655 11.8339 11.3931 11.2069 10.8251C10.9143 10.5601 10.5162 10.416 10.1002 10.416C9.68411 10.416 9.28602 10.5601 8.99337 10.8251C8.36638 11.3931 7.55828 11.6655 6.76814 11.6655C5.97799 11.6655 5.16989 11.3931 4.54291 10.8251C4.25026 10.5601 3.85217 10.416 3.43613 10.416C3.02008 10.416 2.62199 10.5601 2.32934 10.8251C1.70236 11.3931 0.894259 11.6655 0.104113 11.6655H0.0623662C0.0481475 11.6655 0.040942 11.6657 0.034995 11.6658C0.0264421 11.666 0.0204817 11.6662 0 11.6655V9.99591C0.0375651 9.99828 0.0753457 9.99948 0.113275 9.99948C0.525996 9.99738 0.920394 9.85351 1.21089 9.59037C1.83788 9.02245 2.64598 8.75 3.43613 8.75C4.22627 8.75 5.03437 9.02245 5.66136 9.59037C5.95401 9.85546 6.3521 9.99951 6.76814 9.99951C7.18418 9.99951 7.58227 9.85546 7.87492 9.59037C8.50191 9.02245 9.31 8.75 10.1002 8.75C10.15 8.75 10.2 8.75109 10.25 8.75327V6H0V4.5H10.25V2.75C10.25 2.05964 9.69036 1.5 9 1.5ZM14.25 6V9.79535C14.0062 9.92881 13.7236 9.99951 13.4322 9.99951C13.0161 9.99951 12.618 9.85546 12.3254 9.59037C12.1468 9.42857 11.9534 9.29075 11.75 9.17639V6H14.25ZM11.75 2.75V4.5H14.25V2.75C14.25 2.05964 13.6904 1.5 13 1.5C12.3096 1.5 11.75 2.05964 11.75 2.75Z" fill="#131313"/>
<path d="M0 15.6655V13.9959C0.0375651 13.9983 0.0753457 13.9995 0.113275 13.9995C0.525996 13.9974 0.920394 13.8535 1.21089 13.5904C1.83788 13.0225 2.64598 12.75 3.43613 12.75C4.22627 12.75 5.03437 13.0225 5.66136 13.5904C5.95401 13.8555 6.3521 13.9995 6.76814 13.9995C7.18418 13.9995 7.58227 13.8555 7.87492 13.5904C8.50191 13.0225 9.31 12.75 10.1002 12.75C10.8903 12.75 11.6984 13.0225 12.3254 13.5904C12.618 13.8555 13.0161 13.9995 13.4322 13.9995C13.8482 13.9995 14.2463 13.8555 14.5389 13.5904C15.1659 13.0225 15.974 12.75 16.7642 12.75C17.5543 12.75 18.3624 13.0225 18.9894 13.5904C19.2575 13.8333 19.6142 13.9745 19.9921 13.9965V15.6639C19.2355 15.641 18.4704 15.3681 17.871 14.8251C17.5783 14.5601 17.1802 14.416 16.7642 14.416C16.3481 14.416 15.95 14.5601 15.6574 14.8251C15.0304 15.3931 14.2223 15.6655 13.4322 15.6655C12.642 15.6655 11.8339 15.3931 11.2069 14.8251C10.9143 14.5601 10.5162 14.416 10.1002 14.416C9.68411 14.416 9.28602 14.5601 8.99337 14.8251C8.36638 15.3931 7.55828 15.6655 6.76814 15.6655C5.97799 15.6655 5.16989 15.3931 4.54291 14.8251C4.25026 14.5601 3.85217 14.416 3.43613 14.416C3.02008 14.416 2.62199 14.5601 2.32934 14.8251C1.70236 15.3931 0.894259 15.6655 0.104113 15.6655H0.0623662C0.0481475 15.6655 0.040942 15.6657 0.034995 15.6658C0.0264384 15.666 0.0204871 15.6662 0 15.6655Z" fill="#131313"/>
<path d="M0 19.9155V18.2459C0.0375651 18.2483 0.0753457 18.2495 0.113275 18.2495C0.525996 18.2474 0.920394 18.1035 1.21089 17.8404C1.83788 17.2725 2.64598 17 3.43613 17C4.22627 17 5.03437 17.2725 5.66136 17.8404C5.95401 18.1055 6.3521 18.2495 6.76814 18.2495C7.18418 18.2495 7.58227 18.1055 7.87492 17.8404C8.50191 17.2725 9.31 17 10.1002 17C10.8903 17 11.6984 17.2725 12.3254 17.8404C12.618 18.1055 13.0161 18.2495 13.4322 18.2495C13.8482 18.2495 14.2463 18.1055 14.5389 17.8404C15.1659 17.2725 15.974 17 16.7642 17C17.5543 17 18.3624 17.2725 18.9894 17.8404C19.2575 18.0833 19.6142 18.2245 19.9921 18.2465V19.9139C19.2355 19.891 18.4704 19.6181 17.871 19.0751C17.5783 18.8101 17.1802 18.666 16.7642 18.666C16.3481 18.666 15.95 18.8101 15.6574 19.0751C15.0304 19.6431 14.2223 19.9155 13.4322 19.9155C12.642 19.9155 11.8339 19.6431 11.2069 19.0751C10.9143 18.8101 10.5162 18.666 10.1002 18.666C9.68411 18.666 9.28602 18.8101 8.99337 19.0751C8.36638 19.6431 7.55828 19.9155 6.76814 19.9155C5.97799 19.9155 5.16989 19.6431 4.54291 19.0751C4.25026 18.8101 3.85217 18.666 3.43613 18.666C3.02008 18.666 2.62199 18.8101 2.32934 19.0751C1.70236 19.6431 0.894259 19.9155 0.104113 19.9155H0.0623662C0.0481475 19.9155 0.040942 19.9157 0.034995 19.9158C0.0264384 19.916 0.0204871 19.9162 0 19.9155Z" fill="#131313"/>
</svg>
