<svg width="20" height="20" viewBox="0 0 20 20" fill="none" xmlns="http://www.w3.org/2000/svg">
<path d="M12.9142 1.75C12.5474 1.75 12.25 2.04738 12.25 2.41421V2.5H10.75V2.41421C10.75 1.21895 11.719 0.25 12.9142 0.25C13.4882 0.25 14.0387 0.478015 14.4445 0.883884L15.5 1.93934L16.0555 1.38388C16.4613 0.978015 17.0118 0.75 17.5858 0.75C18.781 0.75 19.75 1.71895 19.75 2.91421V3H18.25V2.91421C18.25 2.54738 17.9526 2.25 17.5858 2.25C17.4096 2.25 17.2407 2.31998 17.1161 2.44454L16.2405 3.32015C16.4087 3.27418 16.5845 3.25 16.7639 3.25C17.8608 3.25 18.75 4.13919 18.75 5.23607V5.5H17.25V5.23607C17.25 4.96762 17.0324 4.75 16.7639 4.75C16.5798 4.75 16.4115 4.85402 16.3292 5.01869L16.296 5.08503C16.5639 6.17957 16.5434 7.3282 16.2322 8.41751L15.8585 9.72528C15.7865 9.97722 15.75 10.238 15.75 10.5H14.25C14.25 10.0986 14.3059 9.69915 14.4162 9.3132L14.7899 8.00543C15.0669 7.03585 15.0445 6.00519 14.7256 5.04856L14.5534 4.5319C14.4973 4.36355 14.3397 4.25 14.1623 4.25C13.9346 4.25 13.75 4.43458 13.75 4.66228V5H12.25V4.66228C12.25 3.60616 13.1062 2.75 14.1623 2.75L14.1895 2.75019L13.3839 1.94454C13.2593 1.81998 13.0904 1.75 12.9142 1.75Z" fill="#131313"/>
<path fill-rule="evenodd" clip-rule="evenodd" d="M1 6.5C1 7.05228 1.44772 7.5 2 7.5V9.5C2 10.6046 2.89543 11.5 4 11.5H9C10.1046 11.5 11 10.6046 11 9.5L11 7.5C11.5523 7.5 12 7.05228 12 6.5C12 3.73858 9.76142 1.5 7 1.5H6C3.23858 1.5 1 3.73858 1 6.5ZM10.4646 6H2.53544C2.77806 4.30385 4.23676 3 6 3H7C8.76324 3 10.2219 4.30385 10.4646 6ZM3.5 7.5H9.5V9.5C9.5 9.77614 9.27614 10 9 10H7.25V9C7.25 8.58579 6.91421 8.25 6.5 8.25C6.08579 8.25 5.75 8.58579 5.75 9V10H4C3.72386 10 3.5 9.77614 3.5 9.5V7.5Z" fill="#131313"/>
<path d="M0 15.6655V13.9959C0.0375651 13.9983 0.0753457 13.9995 0.113275 13.9995C0.525996 13.9974 0.920394 13.8535 1.21089 13.5904C1.83788 13.0225 2.64598 12.75 3.43613 12.75C4.22627 12.75 5.03437 13.0225 5.66136 13.5904C5.95401 13.8555 6.3521 13.9995 6.76814 13.9995C7.18418 13.9995 7.58227 13.8555 7.87492 13.5904C8.50191 13.0225 9.31 12.75 10.1002 12.75C10.8903 12.75 11.6984 13.0225 12.3254 13.5904C12.618 13.8555 13.0161 13.9995 13.4322 13.9995C13.8482 13.9995 14.2463 13.8555 14.5389 13.5904C15.1659 13.0225 15.974 12.75 16.7642 12.75C17.5543 12.75 18.3624 13.0225 18.9894 13.5904C19.2575 13.8333 19.6142 13.9745 19.9921 13.9965V15.6639C19.2355 15.641 18.4704 15.3681 17.871 14.8251C17.5783 14.5601 17.1802 14.416 16.7642 14.416C16.3481 14.416 15.95 14.5601 15.6574 14.8251C15.0304 15.3931 14.2223 15.6655 13.4322 15.6655C12.642 15.6655 11.8339 15.3931 11.2069 14.8251C10.9143 14.5601 10.5162 14.416 10.1002 14.416C9.68411 14.416 9.28602 14.5601 8.99337 14.8251C8.36638 15.3931 7.55828 15.6655 6.76814 15.6655C5.97799 15.6655 5.16989 15.3931 4.54291 14.8251C4.25026 14.5601 3.85217 14.416 3.43613 14.416C3.02008 14.416 2.62199 14.5601 2.32934 14.8251C1.70236 15.3931 0.894259 15.6655 0.104113 15.6655H0.0623662C0.0481475 15.6655 0.040942 15.6657 0.034995 15.6658C0.0264465 15.666 0.0204751 15.6662 0 15.6655Z" fill="#131313"/>
<path d="M0 19.9155V18.2459C0.0375651 18.2483 0.0753457 18.2495 0.113275 18.2495C0.525996 18.2474 0.920394 18.1035 1.21089 17.8404C1.83788 17.2725 2.64598 17 3.43613 17C4.22627 17 5.03437 17.2725 5.66136 17.8404C5.95401 18.1055 6.3521 18.2495 6.76814 18.2495C7.18418 18.2495 7.58227 18.1055 7.87492 17.8404C8.50191 17.2725 9.31 17 10.1002 17C10.8903 17 11.6984 17.2725 12.3254 17.8404C12.618 18.1055 13.0161 18.2495 13.4322 18.2495C13.8482 18.2495 14.2463 18.1055 14.5389 17.8404C15.1659 17.2725 15.974 17 16.7642 17C17.5543 17 18.3624 17.2725 18.9894 17.8404C19.2575 18.0833 19.6142 18.2245 19.9921 18.2465V19.9139C19.2355 19.891 18.4704 19.6181 17.871 19.0751C17.5783 18.8101 17.1802 18.666 16.7642 18.666C16.3481 18.666 15.95 18.8101 15.6574 19.0751C15.0304 19.6431 14.2223 19.9155 13.4322 19.9155C12.642 19.9155 11.8339 19.6431 11.2069 19.0751C10.9143 18.8101 10.5162 18.666 10.1002 18.666C9.68411 18.666 9.28602 18.8101 8.99337 19.0751C8.36638 19.6431 7.55828 19.9155 6.76814 19.9155C5.97799 19.9155 5.16989 19.6431 4.54291 19.0751C4.25026 18.8101 3.85217 18.666 3.43613 18.666C3.02008 18.666 2.62199 18.8101 2.32934 19.0751C1.70236 19.6431 0.894259 19.9155 0.104113 19.9155H0.0623662C0.048344 19.9155 0.0411425 19.9157 0.0352424 19.9158C0.0266858 19.916 0.0204871 19.9162 0 19.9155Z" fill="#131313"/>
</svg>
