<svg width="16" height="20" viewBox="0 0 16 20" fill="none" xmlns="http://www.w3.org/2000/svg">
<path d="M9 10.25C8.58579 10.25 8.25 10.5858 8.25 11C8.25 11.4142 8.58579 11.75 9 11.75H9.5C9.91421 11.75 10.25 11.4142 10.25 11C10.25 10.5858 9.91421 10.25 9.5 10.25H9Z" fill="#131313"/>
<path fill-rule="evenodd" clip-rule="evenodd" d="M9 0.25C8.0335 0.25 7.25 1.0335 7.25 2V5.76772C6.40193 5.88903 5.75 6.61838 5.75 7.5V8.25H5.25V7.5C5.25 6.5335 4.4665 5.75 3.5 5.75H2.5C1.5335 5.75 0.75 6.5335 0.75 7.5V10.5C0.75 10.6623 0.802633 10.8202 0.9 10.95L2.25 12.75V19C2.25 19.4142 2.58579 19.75 3 19.75H13C13.4142 19.75 13.75 19.4142 13.75 19V12.75L15.1 10.95C15.1974 10.8202 15.25 10.6623 15.25 10.5V7.5C15.25 6.5335 14.4665 5.75 13.5 5.75H12.5C11.5335 5.75 10.75 6.5335 10.75 7.5V8.25H10.25V7.5C10.25 6.61838 9.59807 5.88903 8.75 5.76772V4.75H10.5C11.4665 4.75 12.25 3.9665 12.25 3V2C12.25 1.0335 11.4665 0.25 10.5 0.25H9ZM10.5 3.25H8.75V2C8.75 1.86193 8.86193 1.75 9 1.75H10.5C10.6381 1.75 10.75 1.86193 10.75 2V3C10.75 3.13807 10.6381 3.25 10.5 3.25ZM12.2929 12.25H12C11.5858 12.25 11.25 12.5858 11.25 13C11.25 13.4142 11.5858 13.75 12 13.75H12.25V18.25H10.75V15C10.75 13.4812 9.51878 12.25 8 12.25C6.48122 12.25 5.25 13.4812 5.25 15V18.25H3.75V12.75H4C4.41421 12.75 4.75 12.4142 4.75 12C4.75 11.5858 4.41421 11.25 4 11.25H3L2.25 10.25V7.5C2.25 7.36193 2.36193 7.25 2.5 7.25H3.5C3.63807 7.25 3.75 7.36193 3.75 7.5V9C3.75 9.41421 4.08579 9.75 4.5 9.75H6.5C6.91421 9.75 7.25 9.41421 7.25 9V7.5C7.25 7.36193 7.36193 7.25 7.5 7.25H8.5C8.63807 7.25 8.75 7.36193 8.75 7.5V9C8.75 9.41421 9.08579 9.75 9.5 9.75H11.5C11.9142 9.75 12.25 9.41421 12.25 9V7.5C12.25 7.36193 12.3619 7.25 12.5 7.25H13.5C13.6381 7.25 13.75 7.36193 13.75 7.5V10.25L12.4 12.05C12.3541 12.1112 12.3181 12.1787 12.2929 12.25ZM9.25 15V18.25H6.75V15C6.75 14.3096 7.30964 13.75 8 13.75C8.69036 13.75 9.25 14.3096 9.25 15Z" fill="#131313"/>
</svg>
