<svg width="21" height="19" viewBox="0 0 21 19" fill="none" xmlns="http://www.w3.org/2000/svg">
<path fill-rule="evenodd" clip-rule="evenodd" d="M5.25 7.75H5.67158C7.55226 7.75 9.36086 8.44906 10.75 9.70327V6.81066L10.0303 7.53033L8.96967 6.46967L10.75 4.68934V1.5H12.25V3.18934L12.5555 2.88388C13.6294 1.80994 15.3706 1.80994 16.4445 2.88388L20.0303 6.46967L18.9697 7.53033L18.25 6.81066V9.25H20V10.75H14C11.6044 10.75 9.31448 11.6872 7.61059 13.3436C9.43931 13.679 11.1966 14.3297 12.8037 15.2672L12.9228 15.3367C15.0709 16.5897 17.5131 17.25 20 17.25V18.75C17.2476 18.75 14.5445 18.0192 12.167 16.6324L12.0479 16.5629C10.5227 15.6732 8.8483 15.0684 7.10659 14.7781L5.74182 14.5506C4.54128 14.3506 3.32626 14.25 2.10916 14.25H0V12.75H2.10916C3.35799 12.75 4.60477 12.8491 5.83776 13.0464L5.97228 12.8927C6.88991 11.844 7.9924 10.9979 9.20992 10.386C8.1847 9.65202 6.94886 9.25 5.67158 9.25H4.76837e-06V7.75H3.75V6.45015C3.37497 6.64186 2.95011 6.75 2.5 6.75H1.5V5.25H2.5C3.19036 5.25 3.75 4.69036 3.75 4V3.45015C3.37497 3.64186 2.95011 3.75 2.5 3.75H1.5V2.25H2.5C3.19036 2.25 3.75 1.69036 3.75 1V0H5.25V1C5.25 1.69036 5.80964 2.25 6.5 2.25H7.5V3.75H6.5C6.04989 3.75 5.62503 3.64186 5.25 3.45015V4C5.25 4.69036 5.80964 5.25 6.5 5.25H7.5V6.75H6.5C6.04989 6.75 5.62503 6.64186 5.25 6.45015V7.75ZM16.75 5.31066V9.25H15.25V7H13.75V9.25292C13.2443 9.26476 12.7431 9.31245 12.25 9.39445V5.31066L13.6161 3.94454C14.1043 3.45639 14.8957 3.45639 15.3839 3.94454L16.75 5.31066Z" fill="#131313"/>
</svg>
