<svg width="20" height="19" viewBox="0 0 20 19" fill="none" xmlns="http://www.w3.org/2000/svg">
<path fill-rule="evenodd" clip-rule="evenodd" d="M2.75 12.25V3.5C2.75 1.70507 4.20507 0.25 6 0.25C7.79493 0.25 9.25 1.70507 9.25 3.5V6.5L11.4423 4.85574C12.0709 4.38433 12.9366 4.38961 13.5593 4.86865L16.25 6.93839V5H17.75V8.09224L19.4573 9.40553L18.5427 10.5945L17.75 9.98469V12.25H18C18.9665 12.25 19.75 13.0335 19.75 14V17C19.75 17.9665 18.9665 18.75 18 18.75H0V17.25H6.63953L7.43953 16.25H0V14.75H8.63953L9.43953 13.75H0V12.25H2.75ZM4.25 3.5C4.25 2.5335 5.0335 1.75 6 1.75C6.9665 1.75 7.75 2.5335 7.75 3.5V12.25H4.25V3.5ZM16.25 12.25V8.83084L12.6448 6.05759C12.5558 5.98915 12.4321 5.9884 12.3423 6.05574L9.25 8.375V12.25H10.25V10.5C10.25 9.5335 11.0335 8.75 12 8.75H13.1429C14.0305 8.75 14.75 9.46954 14.75 10.3571V12.25H16.25ZM13.25 12.25H11.75V10.5C11.75 10.3619 11.8619 10.25 12 10.25H13.1429C13.202 10.25 13.25 10.298 13.25 10.3571V12.25ZM10.1395 17.25H8.56047L11.3605 13.75H12.9395L10.1395 17.25ZM12.0605 17.25L14.8605 13.75H16.4395L13.6395 17.25H12.0605ZM15.5605 17.25L18.233 13.9093C18.244 13.9374 18.25 13.968 18.25 14V17C18.25 17.1381 18.1381 17.25 18 17.25H15.5605Z" fill="#131313"/>
</svg>
