<svg width="20" height="14" viewBox="0 0 20 14" fill="none" xmlns="http://www.w3.org/2000/svg">
<path d="M13.9654 6.29461L12.0731 7.92655L12.6513 10.3663C12.6665 10.429 12.6629 10.4948 12.6408 10.5555C12.6187 10.6161 12.5791 10.6688 12.527 10.7069C12.475 10.7451 12.4128 10.7669 12.3483 10.7697C12.2838 10.7725 12.22 10.7561 12.1648 10.7226L10.0386 9.41473L7.91241 10.7222C7.85724 10.7557 7.79339 10.7721 7.72891 10.7693C7.66444 10.7665 7.60224 10.7447 7.55017 10.7065C7.49811 10.6684 7.45852 10.6157 7.43641 10.5551C7.41429 10.4944 7.41065 10.4286 7.42593 10.3659L8.00411 7.92616L6.11183 6.29422C6.06358 6.25185 6.0288 6.19629 6.01177 6.13438C5.99474 6.07248 5.99622 6.00694 6.01601 5.94586C6.03581 5.88478 6.07305 5.83084 6.12316 5.79069C6.17326 5.75054 6.23402 5.72594 6.29795 5.71993L8.78122 5.51788L9.73785 3.20207C9.76224 3.14233 9.80387 3.0912 9.85743 3.05521C9.911 3.01922 9.97406 3 10.0386 3C10.1031 3 10.1662 3.01922 10.2198 3.05521C10.2733 3.0912 10.315 3.14233 10.3393 3.20207L11.296 5.51788L13.7792 5.71993C13.8433 5.72587 13.9041 5.75045 13.9543 5.79062C14.0045 5.83079 14.0418 5.8848 14.0616 5.94596C14.0814 6.00712 14.0828 6.07274 14.0657 6.13471C14.0486 6.19668 14.0137 6.25227 13.9654 6.29461Z" fill="#131313"/>
<path fill-rule="evenodd" clip-rule="evenodd" d="M18 1.5H2C1.72386 1.5 1.5 1.72386 1.5 2V3.62453C2.65811 3.98039 3.5 5.05855 3.5 6.33333V7.66667C3.5 8.94146 2.65811 10.0196 1.5 10.3755V12C1.5 12.2761 1.72386 12.5 2 12.5H18C18.2761 12.5 18.5 12.2761 18.5 12V10.3755C17.3419 10.0196 16.5 8.94146 16.5 7.66667V6.33333C16.5 5.05854 17.3419 3.98039 18.5 3.62453V2C18.5 1.72386 18.2761 1.5 18 1.5ZM2 0H18C19.1046 0 20 0.895431 20 2V4.33333C20 4.70152 19.7015 5 19.3333 5C18.597 5 18 5.59695 18 6.33333V7.66667C18 8.40305 18.597 9 19.3333 9C19.7015 9 20 9.29848 20 9.66667V12C20 13.1046 19.1046 14 18 14H2C0.895431 14 0 13.1046 0 12V9.66667C0 9.29848 0.298477 9 0.666667 9C1.40305 9 2 8.40305 2 7.66667V6.33333C2 5.59695 1.40305 5 0.666667 5C0.298477 5 0 4.70152 0 4.33333V2C0 0.89543 0.895431 0 2 0Z" fill="#131313"/>
</svg>
