<svg width="18" height="16" viewBox="0 0 18 16" fill="none" xmlns="http://www.w3.org/2000/svg">
<path d="M5 7.75C4.58579 7.75 4.25 8.08579 4.25 8.5C4.25 8.91421 4.58579 9.25 5 9.25H5.5C5.91421 9.25 6.25 8.91421 6.25 8.5C6.25 8.08579 5.91421 7.75 5.5 7.75H5Z" fill="#131313"/>
<path d="M11.75 8.5C11.75 8.08579 12.0858 7.75 12.5 7.75H13C13.4142 7.75 13.75 8.08579 13.75 8.5C13.75 8.91421 13.4142 9.25 13 9.25H12.5C12.0858 9.25 11.75 8.91421 11.75 8.5Z" fill="#131313"/>
<path d="M8.5 7.75C8.08579 7.75 7.75 8.08579 7.75 8.5C7.75 8.91421 8.08579 9.25 8.5 9.25H9.5C9.91421 9.25 10.25 8.91421 10.25 8.5C10.25 8.08579 9.91421 7.75 9.5 7.75H8.5Z" fill="#131313"/>
<path fill-rule="evenodd" clip-rule="evenodd" d="M9 0.25C5.94546 0.25 3.44721 2.63177 3.26112 5.63945L0.519862 7.92383C0.348867 8.06633 0.25 8.27742 0.25 8.5C0.25 8.72258 0.348867 8.93367 0.519862 9.07617L3.45889 11.5254L2.83014 12.9924C2.63317 13.452 2.18124 13.75 1.68121 13.75H1V15.25H1.68121C2.78128 15.25 3.77551 14.5944 4.20886 13.5833L4.99456 11.75H8.25V15H9.75V11.75H13.5054L14.2911 13.5833C14.7245 14.5944 15.7187 15.25 16.8188 15.25H17.5V13.75H16.8188C16.3188 13.75 15.8668 13.452 15.6699 12.9924L14.9095 11.2183L17.4801 9.07617C17.6511 8.93367 17.75 8.72258 17.75 8.5C17.75 8.27742 17.6511 8.06633 17.4801 7.92383L14.7389 5.63945C14.5528 2.63177 12.0545 0.25 9 0.25ZM9 1.75C6.9087 1.75 5.1702 3.26049 4.81597 5.25H13.184C12.8298 3.26049 11.0913 1.75 9 1.75ZM2.17154 8.5L4.27154 6.75H13.7285L15.8285 8.5L13.7285 10.25H4.27154L2.17154 8.5Z" fill="#131313"/>
</svg>
