<svg width="20" height="15" viewBox="0 0 20 15" fill="none" xmlns="http://www.w3.org/2000/svg">
<path d="M15 9C14.5858 9 14.25 9.33579 14.25 9.75C14.25 10.1642 14.5858 10.5 15 10.5H16C16.4142 10.5 16.75 10.1642 16.75 9.75C16.75 9.33579 16.4142 9 16 9H15Z" fill="#131313"/>
<path fill-rule="evenodd" clip-rule="evenodd" d="M1.25 1.75V6.16841C0.658763 6.44927 0.25 7.0519 0.25 7.75V15H1.75V13H11.25V15H12.75V13H18.25V15H19.75V8.75C19.75 7.7835 18.9665 7 18 7H16.25V5.5H16.557C17.7788 5.5 18.6246 4.2796 18.1956 3.13553L17.4456 1.13553C17.1894 0.452502 16.5365 0 15.807 0H15.193C14.4635 0 13.8106 0.452502 13.5544 1.13553L12.8044 3.13553C12.3754 4.2796 13.2211 5.5 14.443 5.5H14.75V7H12.5816C12.4087 6.63608 12.1139 6.34129 11.75 6.16841V1.75C11.75 0.783502 10.9665 0 10 0H3C2.0335 0 1.25 0.783502 1.25 1.75ZM3 1.5C2.86193 1.5 2.75 1.61193 2.75 1.75V6H10.25V1.75C10.25 1.61193 10.1381 1.5 10 1.5H3ZM18.25 11.5V8.75C18.25 8.61193 18.1381 8.5 18 8.5H12.75V11.5H18.25ZM11.25 11.5V7.75C11.25 7.61193 11.1381 7.5 11 7.5H2C1.86193 7.5 1.75 7.61193 1.75 7.75V11.5H11.25ZM15.193 1.5C15.0888 1.5 14.9955 1.56464 14.9589 1.66222L14.2089 3.66222C14.1476 3.82566 14.2684 4 14.443 4H16.557C16.7315 4 16.8524 3.82566 16.7911 3.66222L16.0411 1.66222C16.0045 1.56464 15.9112 1.5 15.807 1.5H15.193Z" fill="#131313"/>
</svg>
