<svg width="18" height="19" viewBox="0 0 18 19" fill="none" xmlns="http://www.w3.org/2000/svg">
<path d="M8.5 3.75C8.08579 3.75 7.75 4.08579 7.75 4.5C7.75 4.91421 8.08579 5.25 8.5 5.25H9.5C9.91421 5.25 10.25 4.91421 10.25 4.5C10.25 4.08579 9.91421 3.75 9.5 3.75H8.5Z" fill="#131313"/>
<path fill-rule="evenodd" clip-rule="evenodd" d="M9.75 17.75V19H11.25V15.8403L14.7818 12.75H17.5V11.25H15.25V5.46353L16.6646 6.17084L17.3354 4.8292L10.2299 1.27641C9.45566 0.889309 8.54439 0.889309 7.77018 1.27641L0.664612 4.8292L1.33543 6.17084L2.75 5.46355V11.25H0.5V12.75H3.2182L6.75 15.8403V19H8.25V17.75H9.75ZM8.44101 2.61805C8.79291 2.4421 9.20713 2.4421 9.55904 2.61805L13.75 4.71353V11.25H11.25V8C11.25 7.0335 10.4665 6.25 9.5 6.25H8.5C7.5335 6.25 6.75 7.0335 6.75 8V11.25H4.25V4.71355L8.44101 2.61805ZM9.75 8V11.25H8.25V8C8.25 7.86193 8.36193 7.75 8.5 7.75H9.5C9.63807 7.75 9.75 7.86193 9.75 8ZM9.75 12.75H8.25V13.75H9.75V12.75ZM9.75 15.25H8.25V16.25H9.75V15.25ZM5.49609 12.75H6.75V13.8472L5.49609 12.75ZM11.25 12.75V13.8472L12.5039 12.75H11.25Z" fill="#131313"/>
</svg>
