<svg width="25" height="24" viewBox="0 0 25 24" fill="none" xmlns="http://www.w3.org/2000/svg">
<path d="M12.4082 20.9998C17.6582 17.4523 22.9082 13.4998 22.9082 8.24979C22.9102 7.55979 22.7757 6.87621 22.5126 6.23836C22.2495 5.60051 21.8628 5.02096 21.3749 4.53306C20.887 4.04516 20.3075 3.65852 19.6696 3.39539C19.0318 3.13225 18.3482 2.99781 17.6582 2.99979C16.3082 2.99979 14.9732 3.50979 13.9457 4.53729L12.4082 6.07479L10.8707 4.53729C10.3842 4.04793 9.80575 3.65958 9.16862 3.39459C8.53149 3.12959 7.84825 2.99316 7.15821 2.99316C6.46816 2.99316 5.78493 3.12959 5.1478 3.39459C4.51067 3.65958 3.93221 4.04793 3.44571 4.53729C2.95755 5.02434 2.57042 5.60304 2.30657 6.24014C2.04272 6.87725 1.90734 7.56021 1.90821 8.24979C1.90821 13.4998 7.15821 17.4523 12.4082 20.9998Z" stroke="#B0B0B0" stroke-width="2"/>
</svg>
