<svg width="25" height="24" viewBox="0 0 25 24" fill="none" xmlns="http://www.w3.org/2000/svg">
<g clip-path="url(#clip0_1_2087)">
<path d="M19.9082 1.5C20.8748 1.49907 21.8045 1.87142 22.5032 2.53939C23.2019 3.20735 23.6157 4.11931 23.6582 5.085V15.75C23.6591 16.7166 23.2868 17.6463 22.6188 18.345C21.9509 19.0437 21.0389 19.4575 20.0732 19.5H15.5282L12.4082 23.31L9.28821 19.5H4.90821C3.97085 19.4999 3.06752 19.1487 2.3762 18.5157C1.68488 17.8827 1.25569 17.0137 1.1732 16.08L1.1582 15.915V5.25C1.15727 4.28338 1.52963 3.35373 2.19759 2.65502C2.86555 1.95632 3.77752 1.54253 4.74321 1.5H4.90821H19.9082ZM19.9082 3H4.90821C4.33414 2.99897 3.78139 3.2174 3.3631 3.61059C2.94482 4.00377 2.69265 4.54197 2.65821 5.115V15.75C2.65717 16.3241 2.8756 16.8768 3.26879 17.2951C3.66197 17.7134 4.20017 17.9656 4.77321 18H10.0082L12.4082 20.94L14.8082 18H19.9082C20.4823 18.001 21.035 17.7826 21.4533 17.3894C21.8716 16.9962 22.1238 16.458 22.1582 15.885V5.25C22.1592 4.67593 21.9408 4.12318 21.5476 3.7049C21.1544 3.28662 20.6162 3.03444 20.0432 3H19.9082Z" fill="#B0B0B0"/>
</g>
<defs>
<clipPath id="clip0_1_2087">
<rect width="24" height="24" fill="white" transform="translate(0.408203)"/>
</clipPath>
</defs>
</svg>
