<svg width="25" height="24" viewBox="0 0 25 24" fill="none" xmlns="http://www.w3.org/2000/svg">
<path d="M12.4082 0.75C13.9082 0.75 15.0032 1.47 15.9707 3.2025L16.3682 3.9675C18.2149 7.64276 19.9903 11.3535 21.6932 15.0975L21.8057 15.36C22.3082 16.56 22.4807 17.22 22.5257 17.91V18.2175L22.5332 18.39C22.5332 21.435 20.3732 23.25 17.7632 23.25C16.0982 23.25 14.3507 22.305 12.7382 20.7075L12.5432 20.5125L12.4157 20.385H12.4007L12.2732 20.52C10.7357 22.095 9.0707 23.085 7.4582 23.235L7.2482 23.2425L7.0532 23.25C4.4432 23.25 2.2832 21.435 2.2832 18.39V18.0375C2.3057 17.34 2.4557 16.71 2.9057 15.6075L3.0707 15.21C3.7982 13.485 7.6307 5.475 8.8457 3.1875C9.8207 1.47 10.9082 0.75 12.4082 0.75ZM12.4082 2.25C11.4782 2.25 10.8707 2.655 10.1657 3.9075L9.7757 4.6575C7.9475 8.29827 6.18968 11.974 4.5032 15.6825L4.2407 16.3125C3.99645 16.8429 3.84428 17.411 3.7907 17.9925L3.7832 18.24V18.39C3.7832 20.55 5.2157 21.75 7.0532 21.75C8.3807 21.75 9.9557 20.82 11.4257 19.2375C9.7007 17.0325 8.5307 14.4 8.5307 12.555C8.5307 10.365 9.9857 8.5125 12.4157 8.49C14.8307 8.5125 16.2857 10.365 16.2857 12.555C16.2857 14.3925 15.1157 17.025 13.3907 19.23C14.8682 20.8275 16.4357 21.75 17.7632 21.75C19.6007 21.75 21.0332 20.55 21.0332 18.39V18.09C20.9829 17.4037 20.7995 16.7337 20.4932 16.1175L20.3057 15.6675C19.5107 13.8075 15.8132 6.09 14.6582 3.9225C13.9457 2.6475 13.3382 2.25 12.4082 2.25ZM12.4157 9.99C10.9082 10.005 10.0307 11.1225 10.0307 12.555C10.0307 13.905 10.9157 15.99 12.2507 17.835L12.4007 18.0525L12.5357 17.8725C13.8332 16.0875 14.7107 14.0775 14.7857 12.72V12.555C14.7857 11.13 13.9082 10.005 12.4157 9.99Z" fill="#B0B0B0"/>
</svg>
