<svg width="20" height="21" viewBox="0 0 20 21" fill="none" xmlns="http://www.w3.org/2000/svg">
<path fill-rule="evenodd" clip-rule="evenodd" d="M10.9435 2.026C10.3311 1.82185 9.66893 1.82185 9.05648 2.026C8.25538 2.29303 7.60495 2.88702 7.26648 3.66065L2.29336 15.0278C1.95427 15.8028 2.0018 16.6926 2.42153 17.4271C2.8978 18.2606 3.78414 18.775 4.74409 18.775H4.92374C5.7261 18.775 6.50457 18.5019 7.1311 18.0007L7.7821 17.4799C8.23354 17.1187 8.66482 16.7348 9.07441 16.3299C8.22258 15.3536 7.4775 14.285 6.85401 13.142L6.80207 13.0467C6.06863 11.7021 6.26082 10.0406 7.27738 8.89692C8.72481 7.26857 11.2752 7.26857 12.7226 8.89692C13.7392 10.0406 13.9314 11.7021 13.1979 13.0467L13.146 13.1419C12.5225 14.285 11.7774 15.3536 10.9256 16.3299C11.3352 16.7348 11.7665 17.1187 12.2179 17.4799L12.8689 18.0007C13.4954 18.5019 14.2739 18.775 15.0763 18.775H15.2559C16.2159 18.775 17.1022 18.2606 17.5785 17.4271C17.9982 16.6926 18.0457 15.8028 17.7066 15.0278L12.7335 3.66065C12.3951 2.88702 11.7446 2.29303 10.9435 2.026ZM10 17.3132C10.4361 17.7427 10.8948 18.1502 11.3746 18.5341L12.0256 19.0549C12.8915 19.7476 13.9674 20.125 15.0763 20.125H15.2559C16.7003 20.125 18.034 19.351 18.7506 18.0969C19.3822 16.9917 19.4537 15.6529 18.9435 14.4867L13.9703 3.11955C13.4787 1.99587 12.534 1.13313 11.3704 0.745278C10.4809 0.448758 9.51913 0.448758 8.62957 0.745278C7.46601 1.13313 6.52128 1.99587 6.02967 3.11955L1.05655 14.4867C0.546332 15.6529 0.617851 16.9917 1.2494 18.0969C1.96603 19.351 3.29969 20.125 4.74409 20.125H4.92374C6.03264 20.125 7.10853 19.7476 7.97444 19.0548L8.62544 18.5341C9.1052 18.1502 9.56391 17.7427 10 17.3132ZM10 15.3365C10.7493 14.4628 11.407 13.5109 11.9608 12.4955L12.0128 12.4003C12.4727 11.5571 12.3527 10.5128 11.7136 9.79381C10.8032 8.7696 9.19679 8.7696 8.28638 9.79381C7.64726 10.5128 7.52729 11.5571 7.98723 12.4003L8.03917 12.4955C8.59303 13.5109 9.25071 14.4628 10 15.3365Z" fill="#FF385C"/>
</svg>
